<svg xmlns="http://www.w3.org/2000/svg" version="1.1" xmlns:xlink="http://www.w3.org/1999/xlink" xmlns:svgjs="http://svgjs.com/svgjs" width="1440" height="560" preserveAspectRatio="none" viewBox="0 0 1440 560"><g mask="url(&quot;#SvgjsMask1031&quot;)" fill="none"><rect width="1440" height="560" x="0" y="0" fill="rgba(81, 59, 86, 1)"></rect><path d="M720 533.7C795.48 537.33 882.03 548.88 934.52 494.52 986.68 440.51 973 354.67 965.06 280 958.17 215.39 938.11 153.76 893.25 106.75 847.23 58.53 786.66 22.25 720 23.13 654.04 24.01 601.44 68.45 551.33 111.33 494.98 159.53 425.02 206.06 419.7 280 414.18 356.58 466.47 425.33 525.12 474.88 579 520.39 649.56 530.32 720 533.7" fill="rgba(115, 98, 119, 1)"></path><path d="M720 395.32C754.31 396.97 793.65 402.22 817.51 377.51 841.22 352.96 835 313.94 831.39 280 828.26 250.63 819.14 222.62 798.75 201.25 777.83 179.33 750.3 162.84 720 163.24 690.02 163.64 666.11 183.84 643.33 203.33 617.72 225.24 585.92 246.39 583.5 280 580.99 314.81 604.76 346.06 631.42 368.58 655.91 389.27 687.98 393.78 720 395.32" fill="rgba(115, 98, 119, 1)"></path></g><defs><mask id="SvgjsMask1031"><rect width="1440" height="560" fill="#ffffff"></rect></mask></defs></svg>