<svg xmlns="http://www.w3.org/2000/svg" version="1.1" xmlns:xlink="http://www.w3.org/1999/xlink" xmlns:svgjs="http://svgjs.com/svgjs" width="1440" height="560" preserveAspectRatio="none" viewBox="0 0 1440 560"><g mask="url(&quot;#SvgjsMask1126&quot;)" fill="none"><rect width="1440" height="560" x="0" y="0" fill="rgba(58, 59, 60, 1)"></rect><path d="M0,293.187C64.636,307.56,134.419,330.539,194.4,302.492C255.984,273.695,297.594,209.956,317.204,144.862C335.724,83.388,311.642,19.922,298.457,-42.912C286.13,-101.656,281.346,-164.373,242.679,-210.282C203.781,-256.466,146.092,-284.87,86.495,-294.574C30.526,-303.687,-21.719,-274.84,-77.03,-262.34C-136.836,-248.824,-203.637,-256.154,-251.739,-218.133C-303.246,-177.421,-336.769,-114.749,-345.993,-49.746C-355.209,15.203,-340.747,84.908,-302.282,138.048C-266.387,187.638,-200.249,198.894,-145.785,226.846C-97.303,251.728,-53.195,281.358,0,293.187" fill="#313233"></path><path d="M1440 899.898C1503.352 887.364 1559.439 862.1510000000001 1620.3 840.552 1701.958 811.572 1805.441 819.525 1858.813 751.266 1912.868 682.134 1900.166 582.456 1890.289 495.258 1880.182 406.023 1866.753 308.49 1801.655 246.62400000000002 1737.85 185.986 1640.034 188.627 1553.102 174.812 1476.71 162.67200000000003 1402.263 159.45 1325.779 170.99900000000002 1238.71 184.147 1138.829 182.637 1078.225 246.51999999999998 1017.298 310.744 1002.7470000000001 411.149 1014.749 498.858 1025.561 577.869 1106.882 624.46 1139.876 697.062 1172.964 769.87 1140.914 877.502 1207.174 922.284 1273.106 966.844 1361.935 915.342 1440 899.898" fill="#434445"></path></g><defs><mask id="SvgjsMask1126"><rect width="1440" height="560" fill="#ffffff"></rect></mask></defs></svg>