<svg xmlns="http://www.w3.org/2000/svg" version="1.1" xmlns:xlink="http://www.w3.org/1999/xlink" xmlns:svgjs="http://svgjs.com/svgjs" width="1440" height="560" preserveAspectRatio="none" viewBox="0 0 1440 560"><g mask="url(&quot;#SvgjsMask1085&quot;)" fill="none"><rect width="1440" height="560" x="0" y="0" fill="rgba(56, 56, 56, 1)"></rect><path d="M0,541.273C99.496,533.621,190.268,474.035,256.909,399.758C315.476,334.48,303.351,234.776,344.483,157.32C389.557,72.44,497.633,22.512,507.978,-73.036C518.732,-172.361,477.473,-283.928,398.942,-345.685C321.717,-406.415,208.79,-363.343,112.715,-383.872C26.514,-402.291,-49.669,-481.867,-135.003,-459.778C-220.455,-437.658,-266.207,-346.542,-315.183,-273.107C-359.054,-207.327,-385.596,-135.071,-403,-57.943C-421.751,25.154,-439.914,109.004,-420.105,191.855C-397.607,285.952,-358.01,379.465,-283.627,441.332C-204.967,506.757,-102.011,549.119,0,541.273" fill="#2d2d2d"></path><path d="M1440 950.094C1511.8 949.1410000000001 1565.748 887.758 1621.768 842.837 1672.404 802.233 1724.9859999999999 761.461 1749.954 701.5509999999999 1774.505 642.641 1767.535 577.384 1758.741 514.172 1749.912 450.705 1736.444 387.56899999999996 1699.035 335.54499999999996 1659.431 280.469 1607.5 230.262 1541.972 212.71499999999997 1477.013 195.32100000000003 1412.301 227.88799999999998 1346.365 241.10899999999998 1273.212 255.777 1192 248.036 1133.689 294.58 1071.551 344.179 1014.6120000000001 420.769 1022.126 499.919 1029.7060000000001 579.762 1125.931 616.413 1170.568 683.046 1205.616 735.365 1210.378 803.374 1255.104 847.704 1306.176 898.3240000000001 1368.098 951.048 1440 950.094" fill="#434343"></path></g><defs><mask id="SvgjsMask1085"><rect width="1440" height="560" fill="#ffffff"></rect></mask></defs></svg>