<svg xmlns="http://www.w3.org/2000/svg" version="1.1" xmlns:xlink="http://www.w3.org/1999/xlink" xmlns:svgjs="http://svgjs.com/svgjs" width="1440" height="560" preserveAspectRatio="none" viewBox="0 0 1440 560"><g mask="url(&quot;#SvgjsMask1040&quot;)" fill="none"><rect width="1440" height="560" x="0" y="0" fill="rgba(80, 74, 64, 1)"></rect><path d="M0,360.681C72.215,366.233,149.053,365.894,210.218,327.105C271.515,288.232,314.787,221.83,330.641,150.999C345.263,85.67,303.165,24.04,292.858,-42.107C282.715,-107.201,311.049,-182.474,270.577,-234.456C229.994,-286.581,151.657,-282.253,89.178,-303.712C23.157,-326.388,-42.383,-390.737,-106.912,-364.109C-172.847,-336.9,-174.272,-243.295,-208.661,-180.805C-234.779,-133.345,-266.853,-92.07,-284.757,-40.942C-306.435,20.961,-341.422,84.69,-323.754,147.854C-305.467,213.232,-247.151,259.012,-190.423,296.303C-133.276,333.87,-68.188,355.439,0,360.681" fill="#5d5950"></path><path d="M1440 1043.604C1548.75 1037.932 1660.135 1101.52 1759.772 1057.575 1863.5819999999999 1011.79 1927.92 907.476 1978.693 806.013 2030.8029999999999 701.879 2060.0280000000002 588.108 2052.857 471.884 2045.281 349.101 2021.3 218.93400000000003 1936.9470000000001 129.39299999999997 1853.638 40.960000000000036 1726.726 2.2730000000000246 1605.353-3.1399999999999864 1497.373-7.955000000000041 1402.139 53.230999999999995 1305.292 101.22500000000002 1224.019 141.50099999999998 1153.1399999999999 192.11 1086.718 253.88 1012.688 322.726 933.854 388.029 896.062 481.794 851.886 591.399 818.677 714.604 855.807 826.7919999999999 894.211 942.829 983.456 1049.562 1098.046 1092.0900000000001 1208.209 1132.975 1322.655 1049.725 1440 1043.604" fill="#a8a399"></path></g><defs><mask id="SvgjsMask1040"><rect width="1440" height="560" fill="#ffffff"></rect></mask></defs></svg>