<svg xmlns="http://www.w3.org/2000/svg" version="1.1" xmlns:xlink="http://www.w3.org/1999/xlink" xmlns:svgjs="http://svgjs.com/svgjs" width="1440" height="560" preserveAspectRatio="none" viewBox="0 0 1440 560"><g mask="url(&quot;#SvgjsMask1010&quot;)" fill="none"><rect width="1440" height="560" x="0" y="0" fill="rgba(38, 38, 38, 1)"></rect><path d="M0,350.673C77.705,364.965,167.744,406.971,231.994,360.99C296.794,314.616,267.896,209.915,299.123,136.605C329.172,66.06,407.657,17.525,410.929,-59.083C414.342,-138.978,362.395,-208.792,316.68,-274.404C266.519,-346.397,216.045,-425.285,134.037,-456.489C49.821,-488.533,-48.29,-481.375,-130.538,-444.573C-208.388,-409.739,-257.157,-334.175,-301.772,-261.487C-340.803,-197.898,-369.501,-127.901,-370.701,-53.299C-371.817,16.054,-341.927,80.136,-308.243,140.77C-276.718,197.517,-236.603,248.132,-182.946,284.67C-128.253,321.914,-65.078,338.703,0,350.673" fill="#545454"></path><path d="M1440 1126.6280000000002C1544.464 1129.644 1633.294 1051.07 1709.921 980.005 1777.671 917.173 1801.548 826.015 1849.383 746.9590000000001 1905.002 655.039 2014.941 584.906 2013.99 477.473 2013.0349999999999 369.592 1925.513 280.778 1844.625 209.39 1770.18 143.68900000000002 1669.006 130.38400000000001 1577.377 92.13799999999998 1472.169 48.22500000000002 1375.5529999999999-64.14200000000005 1266.155-32.061000000000035 1156.7640000000001 0.018000000000029104 1119.695 137.313 1071.3220000000001 240.539 1033.1689999999999 321.95500000000004 1020.697 409.366 1017.194 499.21 1014.005 580.982 1024.95 659.9639999999999 1051.954 737.2139999999999 1081.257 821.0409999999999 1117.233 901.8 1179.914 964.702 1253.49 1038.538 1335.807 1123.62 1440 1126.6280000000002" fill="#5c5c5c"></path></g><defs><mask id="SvgjsMask1010"><rect width="1440" height="560" fill="#ffffff"></rect></mask></defs></svg>